<?xml version="1.0" encoding="utf-8"?>
<!-- Generator: Adobe Illustrator 21.1.0, SVG Export Plug-In . SVG Version: 6.00 Build 0)  -->
<svg version="1.1" id="Capa_1" xmlns="http://www.w3.org/2000/svg" xmlns:xlink="http://www.w3.org/1999/xlink" x="0px" y="0px"
	 viewBox="0 0 58 58" style="enable-background:new 0 0 58 58;" xml:space="preserve">
<style type="text/css">
	.st0{fill:#EAB54E;}
	.st1{fill:#DBD8DD;}
	.st2{fill:#EEEFEE;}
	.st3{fill:#F6C863;}
</style>
<g>
	<g id="icon_14_">
		<path class="st0" d="M52.2,18.7H25.1c-0.9,0-1.8-0.4-2.4-1.1l-3.5-3.9c-0.6-0.7-1.5-1.1-2.4-1.1H5.5c-1.8,0-3.3,1.5-3.3,3.5v38.5
			c0,1.9,1.5,3.5,3.3,3.5h46.7c1.8,0,3.3-1.5,3.3-3.5V22.1C55.5,20.2,54,18.7,52.2,18.7L52.2,18.7z"/>
		<path class="st1" d="M10.1,0h39.7v37.6H10.1L10.1,0z"/>
		<path class="st2" d="M8,3.5h38.5v36.3H8L8,3.5z"/>
		<g>
			<path class="st1" d="M12.3,8.1h29.8v1.7H12.3L12.3,8.1z"/>
			<path class="st1" d="M12.3,13.4h29.8V15H12.3L12.3,13.4z"/>
			<path class="st1" d="M12.3,18.6h29.8v1.7H12.3L12.3,18.6z"/>
		</g>
		<path class="st3" d="M54.7,24.2H25.1c-0.9,0-1.8,0.4-2.4,1.1l-3.5,3.9c-0.6,0.7-1.5,1.1-2.4,1.1H3.5c-1.8,0-3.3,1.5-3.3,3.5
			c0,0.1,0,0.2,0,0.3L2,54.9C2.1,56.6,3.5,58,5.2,58h47.3c1.7,0,3.1-1.4,3.3-3.1L58,28c0.2-1.9-1.2-3.6-3-3.8
			C54.9,24.2,54.8,24.2,54.7,24.2L54.7,24.2z"/>
	</g>
</g>
</svg>
